<?xml version="1.0" standalone="no"?>
<!DOCTYPE svg PUBLIC "-//W3C//DTD SVG 20010904//EN"
 "http://www.w3.org/TR/2001/REC-SVG-20010904/DTD/svg10.dtd">
<svg version="1.0" xmlns="http://www.w3.org/2000/svg"
 width="50.000000pt" height="50.000000pt" viewBox="0 0 50.000000 50.000000"
 preserveAspectRatio="xMidYMid meet">

<g transform="translate(0.000000,50.000000) scale(0.100000,-0.100000)"
fill="#000000" stroke="none">
<path d="M65 439 c-20 -18 -35 -40 -35 -53 1 -105 249 -355 353 -356 23 0 87
62 87 84 0 9 -25 32 -55 53 -55 36 -56 36 -89 20 l-34 -16 -60 61 -60 61 15
33 c16 33 16 34 -20 89 -21 30 -44 55 -52 55 -8 0 -30 -14 -50 -31z m86 -35
c29 -42 30 -48 18 -72 -7 -15 -15 -30 -17 -34 -4 -9 105 -126 130 -139 11 -6
26 -4 46 8 28 16 30 16 75 -16 26 -17 47 -35 47 -40 0 -13 -55 -61 -71 -61
-56 1 -225 141 -288 238 -46 72 -49 98 -15 133 15 16 31 29 35 29 5 0 22 -21
40 -46z"/>
</g>
</svg>
